<svg width="47" height="68" viewBox="0 0 47 68" fill="none" xmlns="http://www.w3.org/2000/svg">
<path d="M45.9266 12.3388C45.8671 12.2213 45.7973 12.1092 45.7179 12.0041C45.0396 11.0499 44.0553 10.3566 42.9284 10.0392C41.8819 9.75317 40.782 9.72322 39.7216 9.95191C39.0212 10.0897 38.3356 10.2944 37.6743 10.5632C38.2487 9.04072 38.3184 7.37393 37.8732 5.8088C37.7207 5.33708 37.5018 4.88949 37.2231 4.47951C36.8061 3.84374 36.2419 3.31787 35.5785 2.94646C34.4198 2.40652 33.0976 2.33355 31.8865 2.7427C30.7865 3.10685 29.799 3.74848 29.0193 4.60565C28.6957 4.94048 28.3973 5.29885 28.1267 5.67781C27.8451 4.41009 27.3014 3.21531 26.5306 2.17023C26.2264 1.77714 25.8743 1.42349 25.4827 1.11747C24.4809 0.307101 23.206 -0.0871827 21.9217 0.0161997C21.1227 0.158163 20.3689 0.488278 19.7227 0.979253C19.0765 1.47023 18.5564 2.10796 18.2055 2.83973C16.1388 6.847 17.8368 13.8767 23.2704 23.73C23.33 23.8457 23.4165 23.9456 23.5227 24.021C23.5689 24.0567 23.6175 24.0891 23.6682 24.1181L25.3274 24.9671C25.4596 25.0402 25.6081 25.0786 25.7592 25.0786H25.8756C26.55 24.9913 27.2098 24.904 27.8502 24.8118C37.8344 23.3904 43.8598 20.7512 45.8004 16.9719C46.1852 16.2643 46.3972 15.4757 46.4192 14.6705C46.4411 13.8653 46.2723 13.0663 45.9266 12.3388ZM44.1218 16.1811C43.1515 18.0829 39.4645 21.5177 26.123 23.1817L25.9387 23.206L24.7501 22.5996C18.2201 10.6651 18.8314 5.6584 19.8016 3.73239C20.0119 3.2554 20.3328 2.83539 20.7378 2.50719C21.1427 2.17899 21.6201 1.95205 22.1303 1.84519C22.6622 1.80599 23.1949 1.90985 23.6731 2.14597C23.9263 2.26573 24.1641 2.41559 24.3814 2.59231C25.6525 3.6111 26.4529 5.61474 26.7052 8.41401C26.7207 8.61539 26.8021 8.80604 26.937 8.95636C27.0719 9.10668 27.2527 9.20825 27.4512 9.2453C27.6498 9.28236 27.855 9.25282 28.035 9.16128C28.2151 9.06974 28.3598 8.92132 28.4469 8.73906C28.8151 7.97699 29.2588 7.25375 29.7713 6.58017C30.4283 5.64327 31.3485 4.92233 32.4153 4.50862C33.16 4.24886 33.9735 4.26782 34.7052 4.56198H34.7392C35.4286 4.97172 35.9328 5.63236 36.1461 6.40552C36.6021 7.86095 36.214 9.80152 35.0254 12.0671C34.9234 12.2435 34.883 12.4489 34.9107 12.6508C34.9384 12.8527 35.0325 13.0397 35.1783 13.1821C35.3241 13.3245 35.5131 13.4143 35.7156 13.4373C35.9181 13.4603 36.1225 13.4152 36.2965 13.3091C37.1797 12.7749 38.1203 12.342 39.1006 12.0186C40.1462 11.6299 41.2824 11.554 42.3705 11.8003C43.1728 11.9937 43.8685 12.4912 44.311 13.1878C44.5179 13.6663 44.6086 14.1869 44.5757 14.7072C44.5428 15.2274 44.3873 15.7325 44.1218 16.1811Z" fill="#534F70"/>
<path d="M26.1088 23.1817L25.9245 23.2059L24.7504 22.5995C18.2204 10.665 18.8317 5.65834 19.802 3.73232C20.0122 3.25533 20.3331 2.83532 20.7381 2.50712C21.1431 2.17892 21.6204 1.95198 22.1306 1.84512C22.6625 1.80593 23.1952 1.90978 23.6734 2.14591C21.6358 3.10649 17.5169 7.09436 26.1088 23.1817Z" fill="white"/>
<path d="M44.1219 16.181C43.1517 18.0828 39.4646 21.5176 26.1232 23.1816C17.5167 7.09433 21.6356 3.10646 23.6829 2.14587C23.9361 2.26563 24.1739 2.41549 24.3912 2.5922C25.6623 3.611 26.4628 5.61464 26.715 8.41391C26.7305 8.61529 26.812 8.80594 26.9468 8.95626C27.0817 9.10658 27.2625 9.20815 27.461 9.2452C27.6596 9.28226 27.8648 9.25272 28.0448 9.16118C28.2249 9.06964 28.3697 8.92122 28.4567 8.73896C28.8249 7.97689 29.2686 7.25365 29.7811 6.58007C30.4355 5.64468 31.3521 4.92389 32.4155 4.50852C33.1601 4.24876 33.9736 4.26772 34.7053 4.56188H34.7393C35.4288 4.97162 35.9329 5.63226 36.1462 6.40542C36.6022 7.86085 36.2141 9.80142 35.0255 12.067C34.9235 12.2434 34.8831 12.4488 34.9108 12.6507C34.9385 12.8526 35.0326 13.0395 35.1784 13.182C35.3242 13.3244 35.5132 13.4142 35.7157 13.4372C35.9182 13.4602 36.1226 13.4151 36.2966 13.309C37.1798 12.7748 38.1205 12.3419 39.1007 12.0185C40.1463 11.6298 41.2826 11.5539 42.3706 11.8002C43.1729 11.9936 43.8687 12.4911 44.3112 13.1877C44.518 13.6662 44.6087 14.1868 44.5758 14.7071C44.5429 15.2273 44.3874 15.7324 44.1219 16.181Z" fill="#4DDB6C"/>
<path d="M8.57578 65.5831C7.72702 66.1591 6.82156 66.6468 5.87354 67.0385L5.70374 66.9609C5.17141 66.6296 4.7834 66.11 4.61702 65.5055C1.70617 57.7432 10.3854 24.3023 15.5618 21.1489C16.3407 20.6771 17.1862 20.3254 18.07 20.1059C23.2222 18.796 28.8305 21.8087 28.8305 21.8087C28.8305 21.8087 28.9809 21.8815 29.2477 22.027C31.7025 23.822 35.0257 27.0434 35.3702 31.5116C35.8602 37.5904 17.9778 59.3248 8.57578 65.5831Z" fill="#FF9A00"/>
<path d="M35.3894 31.5553C35.0449 27.0871 31.7217 23.8658 29.2669 22.0707C28.4361 21.4594 27.5585 20.9143 26.6423 20.4407C26.3172 20.2612 18.487 16.1375 12.4616 19.81C7.29479 22.9586 0.100133 50.1653 0.517355 61.4546C0.633789 64.6517 1.33724 66.534 2.66168 67.2132C3.05423 67.4101 3.48884 67.5084 3.9279 67.4995C4.60372 67.4768 5.26966 67.3304 5.89273 67.0677C6.84076 66.676 7.74622 66.1883 8.59497 65.6123C17.9776 59.3248 35.86 37.5904 35.3894 31.5553ZM24.2699 47.2836C18.4142 54.6092 11.8551 61.1878 7.55677 64.0307C6.66099 64.6795 5.66893 65.1837 4.61681 65.5249C4.25238 65.6615 3.85085 65.6615 3.48642 65.5249C3.24871 65.4037 2.46277 64.739 2.34149 61.3382C2.15228 56.1762 3.65622 47.0071 6.17896 37.9786C9.02675 27.7906 11.86 22.2745 13.4027 21.3333C14.8178 20.5068 16.4311 20.0809 18.0698 20.1011H18.1862C22.1062 20.1011 25.7108 21.998 25.7836 22.0416C25.8563 22.0853 33.0898 25.6754 33.5458 31.6669C33.6962 33.4958 30.8776 39.0168 24.2699 47.2836Z" fill="#534F70"/>
<path d="M18.07 20.1397C17.1862 20.3593 16.3406 20.7109 15.5618 21.1828C10.3853 24.3362 1.72553 57.7722 4.61698 65.5393C4.25256 65.6759 3.85102 65.6759 3.4866 65.5393C3.24888 65.418 2.46295 64.7534 2.34166 61.3526C2.15246 56.1906 3.6564 47.0214 6.17914 37.9929C9.02692 27.805 11.8602 22.2889 13.4029 21.3477C14.8204 20.5297 16.4336 20.1122 18.07 20.1397Z" fill="white"/>
<path d="M29.7814 41.3697C29.6349 41.3681 29.4906 41.3333 29.3594 41.2678L22.2278 37.6099C22.1151 37.5577 22.0142 37.4834 21.9309 37.3913C21.8477 37.2992 21.784 37.1912 21.7435 37.0739C21.703 36.9566 21.6867 36.8323 21.6954 36.7084C21.7041 36.5846 21.7378 36.4638 21.7944 36.3534C21.8509 36.2429 21.9292 36.1449 22.0245 36.0654C22.1198 35.9859 22.2302 35.9265 22.3491 35.8907C22.468 35.8549 22.5928 35.8435 22.7162 35.8571C22.8396 35.8708 22.9589 35.9092 23.0671 35.9701L30.2132 39.6281C30.3972 39.7226 30.5441 39.8763 30.6301 40.0644C30.7162 40.2524 30.7365 40.464 30.6878 40.6651C30.6391 40.8661 30.5242 41.0449 30.3615 41.1727C30.1989 41.3005 29.998 41.3699 29.7911 41.3697H29.7814Z" fill="#534F70"/>
<path d="M13.8008 40.0938C13.6557 40.093 13.5127 40.0581 13.3836 39.9919L5.95604 36.1884C5.74852 36.0716 5.59427 35.879 5.5256 35.6509C5.45694 35.4229 5.47918 35.1772 5.58769 34.9652C5.69619 34.7532 5.88252 34.5914 6.10765 34.5138C6.33277 34.4361 6.57921 34.4486 6.79534 34.5486L14.2229 38.3521C14.4069 38.4467 14.5537 38.6003 14.6398 38.7884C14.7259 38.9765 14.7462 39.1881 14.6975 39.3891C14.6487 39.5901 14.5338 39.7689 14.3712 39.8968C14.2085 40.0246 14.0076 40.094 13.8008 40.0938Z" fill="#534F70"/>
<path d="M21.8635 52.5425C21.7167 52.5422 21.5721 52.5073 21.4414 52.4406L14.4651 48.8554C14.2576 48.7386 14.1033 48.546 14.0346 48.3179C13.966 48.0899 13.9882 47.8441 14.0967 47.6322C14.2052 47.4202 14.3916 47.2584 14.6167 47.1808C14.8418 47.1031 15.0882 47.1156 15.3044 47.2156L22.305 50.8008C22.4886 50.8951 22.6352 51.0484 22.7214 51.236C22.8076 51.4236 22.8283 51.6347 22.7802 51.8354C22.7321 52.0362 22.618 52.215 22.4562 52.3432C22.2944 52.4714 22.0942 52.5416 21.8878 52.5425H21.8635Z" fill="#534F70"/>
<path d="M8.92499 53.8039C8.78017 53.8053 8.63711 53.772 8.50777 53.7069L2.25429 50.5049C2.0362 50.3936 1.87125 50.2002 1.79574 49.9673C1.72022 49.7344 1.74032 49.481 1.85162 49.263C1.96292 49.0449 2.1563 48.8799 2.38921 48.8044C2.62212 48.7289 2.87549 48.749 3.09359 48.8603L9.34706 52.0622C9.45477 52.1176 9.5505 52.1937 9.6288 52.2861C9.70709 52.3785 9.7664 52.4854 9.80334 52.6008C9.84029 52.7161 9.85414 52.8376 9.84411 52.9583C9.83408 53.079 9.80036 53.1965 9.74488 53.3042C9.6682 53.4555 9.55085 53.5824 9.40602 53.6707C9.26118 53.7589 9.0946 53.8051 8.92499 53.8039Z" fill="#534F70"/>
<path d="M20.5782 30.1337C20.433 30.1329 20.2901 30.098 20.161 30.0319L9.92931 24.7875C9.82136 24.733 9.72525 24.6577 9.64652 24.5659C9.56779 24.4741 9.50799 24.3677 9.47056 24.2527C9.43313 24.1377 9.41882 24.0165 9.42845 23.8959C9.43807 23.7754 9.47144 23.6579 9.52664 23.5504C9.63861 23.3329 9.83201 23.1686 10.0647 23.0931C10.2973 23.0177 10.5503 23.0373 10.7686 23.1477L21.0003 28.3921C21.1842 28.4866 21.3311 28.6403 21.4172 28.8284C21.5033 29.0165 21.5236 29.228 21.4749 29.4291C21.4261 29.6301 21.3112 29.8089 21.1486 29.9367C20.9859 30.0645 20.785 30.1339 20.5782 30.1337Z" fill="#534F70"/>
<path d="M11.8068 62.6238C11.6602 62.6222 11.5159 62.5873 11.3847 62.5219L5.13609 59.32C4.92857 59.2032 4.77432 59.0106 4.70566 58.7825C4.63699 58.5545 4.65924 58.3088 4.76774 58.0968C4.87624 57.8848 5.06258 57.723 5.2877 57.6454C5.51283 57.5677 5.75927 57.5802 5.97539 57.6802L12.2289 60.8821C12.4129 60.9767 12.5597 61.1303 12.6458 61.3184C12.7319 61.5065 12.7522 61.7181 12.7035 61.9191C12.6548 62.1202 12.5398 62.299 12.3772 62.4268C12.2146 62.5546 12.0136 62.624 11.8068 62.6238Z" fill="#534F70"/>
</svg>
